<svg height="100" viewBox="0 0 100 100" width="100" xmlns="http://www.w3.org/2000/svg"><path d="m19.2116473 57.8939335 20.2628767 21.9286431-18.8155284 4.3867813-10.1314384-8.7709309zm53.4782053-42.1046789 8.8893504 4.8867743-2.9631168 16.1655652-20.7418175-13.5340228zm-55.2544965 0c.9868284 0 1.7789227.0421047 2.9604853.9868284 1.644714 1.3157712 7.7104193 5.6104485 7.7104193 5.6104485l1.0999847 1.955236c2.0026038.0999986 2.0526031.2815751 4.5815154 2.139444l55.6860695 37.7731601c-.4289415.9289345-7.0499022 19.9549863-7.0499022 19.9549863h-10.2209108l-61.6754601-65.1306753s1.0052493-.3763105 1.9736569-.9868284c1.5184-.9552499 3.4288998-2.3025996 4.934142-2.3025996zm7.5656845-13.15771217h-22.36811065c-1.38945441.69472721-2.63224218 1.49997919-2.63224218 4.27625646v18.09185421 5.5920277l2.60066367 7.2314786-2.60066367 3.6236339v2.9604853l2.63224218 1.9736568v3.6183708l-2.63224218 2.6315425v9.8682841l2.63224218 1.644714v10.8551126c-2.7473303 1.955236-2.63224218 4.2762564-2.63224218 6.9446404v12.462985c6.1558775 1.5368208 5.13483903 2.9604853 12.17158353 2.9604853h10.1972269c.9526184-.0605255 1.6947133-.2605227 2.6315424-.3499952 2.6157532-.2526281 4.2762565-2.2815473 4.2762565-2.2815473l6.9077989 2.6315425 2.6315424-2.6315425s3.4499521 4.2709934 4.2762565 5.2630849l2.3025996-2.6315424 7.2367417 2.6315424s2.6841733-2.5762801 5.5920277-2.6315424h14.1445405c.2157865-.2078919 2.6315425-2.6315425 2.6315425-2.6315425 1.1078793.6631487.1289456 2.6315425 10.1972269 2.6315425 2.7789088 0 5.2630849-.6578857 5.2630849-.6578857-.4263099-1.4210329-.4736777-1.1315632-1.3157712-1.9736568 0 0 6.578856 0 10.8551125 2.6315425v-40.770487l-5.2630849 1.6262932c.1026302-.8341989 2.5341754-1.9420783 2.6315425-3.6183708.1236825-2.1131286-.1157879-9.4367112-.4236784-10.9840581-.1578925-.7894627-1.6657663-3.1025885-2.2078641-3.8183681.6447279-1.7394495 2.6315425-2.9604852 2.6315425-2.9604852v-1.9736569l2.6315424-1.5341892v-11.1103721l-2.6315424-11.0393206 2.6315424-2.84996041v-3.14732475l-2.7789088-2.40786133-9.0261906-1.49208456-2.0841816 1.49208456-1.0420908-1.73681801s-13.6419159-1.03682772-16.1155658-1.03682772c-3.1657456 0-2.7052257.23683882-3.7762634 3.80257882l-4.5420423.46315147-.436836-1.63945094h-4.6051993l.7578842-.83419895c.805252-.76051576.523677-.45525684 1.1526156-1.79734348h-15.8366223c-.247365.4526253-1.1526156 1.47892685-1.8657636 2.63154243 0 0-1.3894544-.01315771-2.4315452.68156949-1.0420908.69472721-1.0368277 1.94997295-2.4262822 1.94997295-1.3894544 0-4.2709933 0-5.9025496 0-3.473636 0-4.0394177-2.63154244-4.0394177-2.63154244z" fill="#f44336" fill-rule="evenodd"/></svg>